<?xml version="1.0" standalone="no"?>
<!DOCTYPE svg PUBLIC "-//W3C//DTD SVG 20010904//EN"
 "http://www.w3.org/TR/2001/REC-SVG-20010904/DTD/svg10.dtd">
<svg version="1.0" xmlns="http://www.w3.org/2000/svg"
 width="64.000000pt" height="64.000000pt" viewBox="0 0 64.000000 64.000000"
 preserveAspectRatio="xMidYMid meet">
<metadata>
Created by potrace 1.16, written by Peter Selinger 2001-2019
</metadata>
<g transform="translate(0.000000,64.000000) scale(0.100000,-0.100000)"
fill="#000000" stroke="none">
<path d="M212 588 c-36 -16 -48 -29 -69 -74 -17 -37 -25 -75 -26 -115 -2 -53
-4 -60 -20 -55 -11 2 -16 2 -13 -1 3 -4 1 -13 -6 -20 -9 -11 -9 -17 3 -24 23
-14 32 -10 18 9 -13 15 -12 16 3 4 9 -8 14 -20 11 -28 -4 -11 -9 -12 -16 -5
-17 17 -27 13 -27 -9 0 -11 -7 -20 -15 -20 -20 0 -19 -16 1 -24 8 -3 13 -2 10
3 -3 4 6 13 19 19 14 7 25 9 25 6 0 -9 -44 -43 -57 -44 -6 0 -11 -14 -10 -32
2 -27 6 -32 23 -30 14 2 31 -10 52 -38 33 -40 43 -43 92 -23 14 6 42 8 65 3
l40 -7 -27 -11 c-16 -6 -28 -18 -28 -26 0 -18 92 -16 135 4 34 16 40 17 76 19
21 1 28 7 33 32 3 19 10 28 17 23 6 -3 7 -9 3 -13 -15 -11 -15 -31 0 -25 8 3
13 14 11 24 -2 10 3 24 11 30 7 7 11 16 8 21 -3 5 1 6 9 3 22 -8 42 22 27 41
-6 8 -9 19 -5 24 3 6 0 9 -7 6 -17 -7 -28 59 -16 95 3 8 3 12 1 8 -2 -4 -11
-4 -20 -1 -12 5 -14 1 -9 -14 4 -12 2 -20 -6 -20 -7 0 -21 -4 -30 -8 -11 -4
-18 -3 -18 4 0 6 8 11 18 11 14 0 20 9 22 33 7 89 -7 158 -42 202 -23 30 -91
65 -123 64 -16 -1 -16 -2 5 -9 18 -6 7 -8 -40 -8 -47 0 -58 2 -40 8 l25 8 -25
0 c-14 0 -45 -9 -68 -20z m44 -76 c5 -18 13 -30 16 -27 3 4 9 1 14 -6 5 -8 3
-10 -6 -4 -8 5 -11 2 -7 -11 3 -11 8 -31 11 -46 4 -18 15 -30 31 -34 34 -8 20
-27 -17 -22 -21 4 -27 1 -24 -9 3 -7 -1 -13 -10 -13 -8 0 -12 -5 -8 -11 3 -6
17 -8 32 -4 27 7 85 -12 77 -26 -3 -4 -12 -6 -20 -2 -11 4 -15 -2 -15 -23 0
-21 -7 -32 -25 -41 -14 -6 -25 -8 -26 -5 0 4 -2 18 -3 32 -1 14 -15 43 -30 65
-15 22 -23 41 -17 43 6 2 11 15 11 28 0 14 -4 22 -10 19 -13 -8 -13 49 0 95 9
32 8 33 -5 16 -8 -11 -15 -28 -15 -38 0 -11 -7 -18 -20 -18 -26 0 -25 6 8 45
32 40 43 39 58 -3z"/>
</g>
</svg>
