<svg xmlns="http://www.w3.org/2000/svg" xmlns:xlink="http://www.w3.org/1999/xlink" width="64" zoomAndPan="magnify" viewBox="0 0 48 48" height="64" preserveAspectRatio="xMidYMid meet" version="1.0"><defs><filter x="0%" y="0%" width="100%" height="100%" id="c4e93dd339"><feColorMatrix values="0 0 0 0 1 0 0 0 0 1 0 0 0 0 1 0 0 0 1 0" color-interpolation-filters="sRGB"/></filter><clipPath id="1a5f73c5d6"><path d="M 0.488281 0.726562 L 43 0.726562 L 43 46.277344 L 0.488281 46.277344 Z M 0.488281 0.726562 " clip-rule="nonzero"/></clipPath><mask id="9349151567"><g filter="url(#c4e93dd339)"><rect x="-4.8" width="57.6" fill="#000000" y="-4.8" height="57.6" fill-opacity="0.2863"/></g></mask><clipPath id="6647f1e37c"><path d="M 0.546875 0.292969 L 36.75 0.292969 L 36.75 40.257812 L 0.546875 40.257812 Z M 0.546875 0.292969 " clip-rule="nonzero"/></clipPath><clipPath id="dc561adeeb"><rect x="0" width="37" y="0" height="41"/></clipPath><clipPath id="df6f381053"><path d="M 4 4 L 47.507812 4 L 47.507812 46.277344 L 4 46.277344 Z M 4 4 " clip-rule="nonzero"/></clipPath></defs><g clip-path="url(#1a5f73c5d6)"><path fill="#1e3748" d="M 36.691406 46.019531 C 36.476562 45.992188 31.394531 45.359375 24.382812 42.25 C 20.277344 40.425781 16.363281 38.125 12.761719 35.417969 C 8.246094 32.019531 4.214844 27.980469 0.75 23.390625 L 0.488281 23.035156 L 0.703125 22.65625 C 0.824219 22.441406 3.664062 17.414062 10.015625 12.164062 C 13.738281 9.082031 17.902344 6.578125 22.390625 4.71875 C 27.984375 2.390625 34.101562 1.058594 40.574219 0.761719 L 41.1875 0.734375 L 41.273438 1.347656 C 43.160156 15.644531 42.015625 26.898438 40.714844 33.835938 C 39.296875 41.375 37.453125 45.460938 37.378906 45.636719 L 37.175781 46.085938 Z M 36.691406 46.019531 " fill-opacity="1" fill-rule="nonzero"/></g><path fill="#717e87" d="M 1.289062 22.980469 C 1.289062 22.980469 12.585938 2.707031 40.601562 1.429688 C 44.25 28.929688 36.765625 45.347656 36.765625 45.347656 C 36.765625 45.347656 16.28125 42.882812 1.289062 22.980469 Z M 1.289062 22.980469 " fill-opacity="1" fill-rule="nonzero"/><g mask="url(#9349151567)"><g transform="matrix(1, 0, 0, 1, 3, 3)"><g clip-path="url(#dc561adeeb)"><g clip-path="url(#6647f1e37c)"><path fill="#1e3748" d="M 32.488281 40.078125 C 34.074219 35.710938 38.28125 21.621094 35.832031 0.5625 C 30.414062 0.992188 25.265625 2.191406 20.523438 4.15625 C 16.296875 5.898438 12.378906 8.242188 8.867188 11.128906 C 4.558594 14.65625 1.921875 18.15625 0.757812 19.871094 L 2.863281 19.804688 L 18.886719 20.1875 L 31.398438 38.113281 Z M 32.488281 40.078125 " fill-opacity="1" fill-rule="nonzero"/></g></g></g></g><path fill="#a5b3bc" d="M 34.398438 41.105469 C 32.359375 40.601562 29.363281 39.691406 25.890625 38.136719 C 22.121094 36.441406 18.535156 34.308594 15.230469 31.804688 C 11.792969 29.199219 8.644531 26.183594 5.851562 22.804688 C 7.195312 20.988281 9.558594 18.167969 13.039062 15.328125 C 16.421875 12.574219 20.191406 10.332031 24.25 8.664062 C 28.328125 6.988281 32.714844 5.890625 37.332031 5.386719 C 39.175781 23.398438 36.09375 35.902344 34.398438 41.105469 Z M 34.398438 41.105469 " fill-opacity="1" fill-rule="nonzero"/><path fill="#1e3748" d="M 33.421875 39.335938 C 31.605469 38.824219 29.195312 38.023438 26.484375 36.804688 C 22.816406 35.15625 19.324219 33.082031 16.113281 30.640625 C 13.078125 28.34375 10.257812 25.691406 7.722656 22.757812 C 9.09375 21.035156 11.152344 18.753906 13.960938 16.464844 C 17.230469 13.800781 20.878906 11.632812 24.808594 10.023438 C 28.320312 8.582031 32.089844 7.574219 36.039062 7.027344 C 36.671875 14.238281 36.578125 21.25 35.75 27.867188 C 35.125 32.847656 34.203125 36.703125 33.421875 39.335938 Z M 33.421875 39.335938 " fill-opacity="1" fill-rule="nonzero"/><path fill="#1e3748" d="M 31.457031 13.347656 C 31.652344 13.496094 31.839844 13.652344 32.027344 13.8125 C 32.082031 13.859375 32.128906 13.90625 32.183594 13.953125 C 32.324219 14.074219 32.453125 14.183594 32.59375 14.304688 C 32.660156 14.359375 32.722656 14.425781 32.789062 14.492188 C 32.910156 14.601562 33.03125 14.714844 33.152344 14.835938 C 33.226562 14.902344 33.292969 14.976562 33.367188 15.050781 C 33.480469 15.160156 33.589844 15.28125 33.703125 15.394531 C 33.777344 15.46875 33.839844 15.542969 33.917969 15.628906 C 34.027344 15.75 34.128906 15.867188 34.242188 15.988281 C 34.316406 16.074219 34.382812 16.148438 34.457031 16.230469 C 34.566406 16.363281 34.671875 16.492188 34.78125 16.625 C 34.847656 16.707031 34.914062 16.78125 34.976562 16.863281 C 35.089844 17.015625 35.210938 17.164062 35.320312 17.3125 C 35.378906 17.386719 35.433594 17.460938 35.488281 17.535156 C 35.65625 17.769531 35.824219 18 35.984375 18.242188 C 36.800781 17.777344 37.425781 17.421875 37.882812 17.152344 C 38.058594 17.050781 38.207031 16.96875 38.339844 16.894531 C 38.609375 16.742188 38.796875 16.632812 38.933594 16.558594 C 39.269531 16.363281 39.269531 16.363281 39.269531 16.363281 C 39.269531 16.363281 39.242188 16.324219 39.1875 16.25 C 39.160156 16.214844 39.128906 16.167969 39.082031 16.109375 C 38.960938 15.953125 38.785156 15.730469 38.554688 15.460938 C 37.769531 14.566406 36.355469 13.207031 34.382812 12.285156 C 34.652344 12.378906 34.902344 12.472656 35.15625 12.566406 C 35.277344 12.609375 35.398438 12.65625 35.519531 12.703125 C 36.335938 13.019531 37.015625 13.320312 37.585938 13.589844 C 37.828125 13.699219 38.039062 13.8125 38.246094 13.914062 C 38.375 13.980469 38.496094 14.054688 38.617188 14.109375 C 39.597656 14.648438 39.941406 14.984375 39.941406 14.984375 L 40.035156 13.765625 L 40.230469 11.253906 C 40.230469 11.253906 40.21875 11.253906 40.210938 11.242188 C 40.199219 11.234375 40.183594 11.222656 40.164062 11.214844 C 40.164062 11.214844 40.164062 11.214844 40.15625 11.207031 C 40.136719 11.195312 40.117188 11.175781 40.089844 11.160156 C 40.078125 11.160156 40.078125 11.148438 40.070312 11.148438 C 40.042969 11.132812 40.015625 11.113281 39.988281 11.085938 C 39.976562 11.085938 39.976562 11.074219 39.96875 11.066406 C 39.929688 11.039062 39.894531 11.019531 39.855469 10.992188 C 39.847656 10.980469 39.839844 10.980469 39.839844 10.972656 C 39.792969 10.945312 39.746094 10.90625 39.6875 10.871094 C 39.6875 10.871094 39.679688 10.859375 39.679688 10.859375 C 39.382812 10.65625 38.972656 10.394531 38.460938 10.078125 C 38.460938 10.078125 38.449219 10.070312 38.449219 10.070312 C 38.359375 10.015625 38.253906 9.949219 38.152344 9.894531 C 38.144531 9.882812 38.132812 9.882812 38.117188 9.875 C 38.023438 9.820312 37.917969 9.753906 37.816406 9.699219 C 37.800781 9.6875 37.789062 9.679688 37.769531 9.667969 C 37.667969 9.613281 37.566406 9.546875 37.453125 9.492188 C 37.4375 9.484375 37.417969 9.472656 37.40625 9.464844 C 37.296875 9.398438 37.183594 9.335938 37.0625 9.277344 C 37.054688 9.269531 37.035156 9.269531 37.027344 9.261719 C 31.347656 6.167969 19.101562 1.523438 8.460938 11.027344 C 8.460938 11.046875 21.523438 5.628906 31.457031 13.347656 Z M 31.457031 13.347656 " fill-opacity="1" fill-rule="nonzero"/><path fill="#1e3748" d="M 45.320312 10.332031 C 45.332031 10.292969 45.332031 10.265625 45.339844 10.238281 C 45.339844 10.226562 45.339844 10.21875 45.351562 10.210938 C 45.359375 10.179688 45.359375 10.152344 45.367188 10.136719 C 45.367188 10.125 45.367188 10.117188 45.378906 10.105469 C 45.378906 10.089844 45.386719 10.070312 45.386719 10.050781 C 45.386719 10.042969 45.386719 10.03125 45.398438 10.023438 C 45.398438 10.003906 45.40625 9.996094 45.40625 9.976562 C 45.40625 9.96875 45.40625 9.96875 45.40625 9.957031 C 45.40625 9.941406 45.414062 9.929688 45.414062 9.921875 C 45.414062 9.921875 45.414062 9.910156 45.414062 9.910156 C 45.414062 9.902344 45.414062 9.882812 45.425781 9.882812 C 45.425781 9.875 45.425781 9.875 45.425781 9.875 C 45.425781 9.875 45.425781 9.863281 45.425781 9.863281 C 45.425781 9.863281 45.425781 9.855469 45.425781 9.855469 L 41.363281 10.179688 C 41.363281 10.179688 41.363281 10.191406 41.363281 10.199219 C 41.363281 10.210938 41.355469 10.226562 41.355469 10.257812 C 41.347656 10.285156 41.347656 10.3125 41.335938 10.347656 C 41.242188 10.84375 40.917969 12.359375 40.265625 14.445312 C 39.324219 17.433594 37.695312 21.574219 35.035156 25.550781 C 30.089844 32.921875 14.445312 38.675781 14.445312 38.675781 C 14.445312 38.675781 14.539062 39.214844 14.761719 44.382812 C 18.132812 40.25 27.929688 36.292969 35.480469 29.953125 C 42.15625 24.347656 44.808594 12.9375 45.332031 10.378906 C 45.320312 10.347656 45.320312 10.339844 45.320312 10.332031 Z M 45.320312 10.332031 " fill-opacity="1" fill-rule="nonzero"/><g clip-path="url(#df6f381053)"><path fill="#1e3748" d="M 47.203125 13.597656 C 47.148438 13.523438 47.082031 13.457031 47.007812 13.402344 C 46.8125 13.242188 46.570312 13.160156 46.320312 13.160156 C 46.226562 13.160156 46.121094 13.167969 46.03125 13.199219 C 45.957031 13.214844 45.871094 13.242188 45.777344 13.273438 C 45.648438 13.308594 45.5 13.355469 45.320312 13.410156 C 45.683594 12.0625 45.917969 11.039062 46.019531 10.507812 L 46.046875 10.367188 L 45.339844 10.226562 L 46.046875 10.347656 L 46.121094 9.984375 L 46.121094 9.941406 L 46.261719 9.046875 L 41.289062 9.445312 L 40.742188 9.511719 L 40.628906 10.125 L 40.628906 10.136719 L 40.601562 10.257812 C 40.582031 10.339844 40.554688 10.460938 40.527344 10.617188 L 40.277344 10.441406 L 40.078125 10.3125 C 39.699219 10.050781 39.28125 9.78125 38.839844 9.519531 L 38.8125 9.503906 C 38.710938 9.445312 38.617188 9.382812 38.515625 9.324219 L 38.46875 9.296875 C 38.367188 9.242188 38.265625 9.175781 38.152344 9.109375 L 37.734375 8.878906 C 37.621094 8.8125 37.5 8.746094 37.378906 8.683594 L 37.34375 8.664062 C 34 6.847656 28.777344 4.679688 22.910156 4.679688 C 20.136719 4.679688 17.5 5.164062 15.015625 6.132812 C 9.847656 7.984375 6.785156 11.34375 4.261719 14.828125 C 6.160156 13.03125 8.328125 11.867188 10.488281 11.121094 C 12.269531 10.601562 15.210938 9.929688 18.582031 9.929688 C 23.402344 9.929688 27.574219 11.269531 30.984375 13.921875 C 31.160156 14.0625 31.335938 14.210938 31.53125 14.371094 C 31.558594 14.398438 31.679688 14.5 31.679688 14.5 C 31.8125 14.613281 31.941406 14.722656 32.074219 14.84375 C 32.121094 14.882812 32.164062 14.929688 32.203125 14.964844 L 32.257812 15.023438 C 32.378906 15.132812 32.492188 15.234375 32.601562 15.355469 C 32.667969 15.421875 32.734375 15.476562 32.789062 15.542969 L 32.808594 15.5625 C 32.917969 15.671875 33.023438 15.785156 33.132812 15.898438 C 33.199219 15.972656 33.273438 16.046875 33.339844 16.121094 C 33.441406 16.230469 33.554688 16.351562 33.65625 16.472656 L 33.675781 16.492188 C 33.738281 16.566406 33.804688 16.632812 33.859375 16.707031 C 33.960938 16.828125 34.074219 16.957031 34.175781 17.089844 L 34.242188 17.164062 C 34.289062 17.21875 34.324219 17.265625 34.371094 17.320312 C 34.484375 17.460938 34.597656 17.609375 34.707031 17.757812 L 34.78125 17.851562 C 34.808594 17.890625 34.847656 17.9375 34.875 17.972656 C 35.042969 18.207031 35.199219 18.417969 35.351562 18.644531 L 35.703125 19.230469 L 38.265625 17.769531 C 37.34375 20.039062 36.085938 22.628906 34.398438 25.140625 C 29.640625 32.234375 14.316406 37.929688 14.167969 37.988281 L 13.609375 38.183594 L 13.710938 38.769531 C 13.710938 38.796875 13.804688 39.503906 14.019531 44.398438 L 14.101562 46.289062 L 15.292969 44.828125 C 16.96875 42.769531 20.398438 40.714844 24.363281 38.320312 C 28.058594 36.097656 32.25 33.574219 35.917969 30.492188 C 39.027344 27.878906 41.289062 24.03125 42.882812 20.382812 C 43.28125 20.8125 43.851562 21.101562 44.363281 21.101562 C 45.023438 21.101562 45.488281 20.625 45.507812 19.957031 C 45.507812 19.917969 45.507812 19.871094 45.507812 19.835938 L 45.507812 19.722656 C 45.507812 19.648438 45.507812 19.574219 45.5 19.5 L 45.488281 19.171875 C 45.488281 19.070312 45.480469 18.96875 45.480469 18.855469 C 45.480469 18.1875 45.582031 17.617188 46.066406 17.03125 C 46.152344 16.929688 46.253906 16.828125 46.355469 16.726562 C 46.652344 16.445312 46.886719 16.167969 47.074219 15.867188 C 47.128906 15.777344 47.183594 15.683594 47.230469 15.582031 C 47.257812 15.535156 47.277344 15.488281 47.296875 15.441406 C 47.332031 15.347656 47.371094 15.253906 47.398438 15.160156 C 47.59375 14.554688 47.511719 13.988281 47.203125 13.597656 Z M 47.203125 13.597656 " fill-opacity="1" fill-rule="nonzero"/></g><path fill="#1e3748" d="M 46.636719 14.042969 C 46.605469 14.015625 46.589844 13.988281 46.558594 13.96875 C 46.457031 13.894531 46.347656 13.867188 46.214844 13.894531 C 46.140625 13.914062 46.066406 13.941406 45.984375 13.960938 C 45.378906 14.136719 44.476562 14.453125 44.476562 14.453125 C 44.445312 14.585938 44.417969 14.714844 44.382812 14.855469 C 44.382812 14.863281 44.371094 14.875 44.371094 14.882812 C 44.335938 15.011719 44.308594 15.152344 44.269531 15.28125 C 44.269531 15.28125 44.269531 15.292969 44.269531 15.292969 C 44.195312 15.582031 44.101562 15.867188 44.019531 16.15625 C 43.675781 17.285156 43.292969 18.328125 43.171875 18.644531 C 43.160156 18.660156 43.160156 18.671875 43.152344 18.679688 C 43.152344 18.691406 43.152344 18.691406 43.144531 18.691406 C 43.132812 18.71875 43.125 18.734375 43.125 18.734375 C 43.085938 18.839844 43.058594 18.949219 43.058594 19.050781 C 43.058594 19.191406 43.085938 19.332031 43.144531 19.453125 C 43.496094 20.253906 44.78125 20.757812 44.800781 19.898438 C 44.800781 19.863281 44.800781 19.835938 44.800781 19.796875 C 44.800781 19.761719 44.800781 19.730469 44.800781 19.695312 C 44.800781 19.621094 44.800781 19.554688 44.800781 19.480469 C 44.800781 19.371094 44.792969 19.265625 44.792969 19.15625 C 44.792969 19.042969 44.78125 18.933594 44.78125 18.820312 C 44.78125 18.09375 44.882812 17.3125 45.535156 16.539062 C 45.640625 16.417969 45.75 16.296875 45.890625 16.167969 C 46.152344 15.925781 46.347656 15.683594 46.484375 15.460938 C 46.53125 15.386719 46.570312 15.3125 46.605469 15.234375 C 46.625 15.199219 46.644531 15.160156 46.652344 15.132812 C 46.679688 15.058594 46.710938 14.992188 46.726562 14.929688 C 46.847656 14.546875 46.785156 14.230469 46.636719 14.042969 Z M 46.636719 14.042969 " fill-opacity="1" fill-rule="nonzero"/><path fill="#a5b3bc" d="M 8.460938 11.046875 C 8.460938 11.046875 26.140625 3.710938 35.992188 18.242188 C 39.289062 16.363281 39.289062 16.363281 39.289062 16.363281 C 39.289062 16.363281 37.546875 13.765625 34.398438 12.292969 C 38.703125 13.820312 39.949219 15.011719 39.949219 15.011719 L 40.238281 11.289062 C 40.238281 11.28125 22.882812 -1.828125 8.460938 11.046875 Z M 8.460938 11.046875 " fill-opacity="1" fill-rule="nonzero"/><path fill="#a5b3bc" d="M 13.449219 8.859375 C 13.449219 8.859375 24.820312 6.320312 31.457031 13.347656 C 33.078125 14.601562 34.613281 16.214844 35.992188 18.242188 C 39.289062 16.363281 39.289062 16.363281 39.289062 16.363281 C 39.289062 16.363281 37.546875 13.765625 34.398438 12.292969 C 38.703125 13.820312 39.949219 15.011719 39.949219 15.011719 L 40.238281 11.289062 C 40.238281 11.289062 38.886719 10.265625 36.625 9.074219 C 36.515625 9.019531 22.539062 2.726562 13.449219 8.859375 Z M 13.449219 8.859375 " fill-opacity="1" fill-rule="nonzero"/><path fill="#717e87" d="M 40.238281 11.28125 C 40.238281 11.28125 36.03125 8.105469 30.042969 6.421875 C 25.210938 5.507812 18.917969 5.40625 13.449219 8.859375 C 13.449219 8.859375 23.925781 4.949219 34.976562 11.019531 C 37.015625 12.136719 38.683594 13.046875 40.042969 13.792969 Z M 40.238281 11.28125 " fill-opacity="1" fill-rule="nonzero"/><path fill="#a5b3bc" d="M 29.121094 9.316406 L 30.917969 7.40625 L 31.242188 9.910156 Z M 29.121094 9.316406 " fill-opacity="1" fill-rule="nonzero"/><path fill="#a5b3bc" d="M 31.597656 10.488281 L 34.019531 8.65625 L 33.71875 11.085938 Z M 31.597656 10.488281 " fill-opacity="1" fill-rule="nonzero"/><path fill="#a5b3bc" d="M 41.355469 10.164062 L 45.414062 9.835938 C 45.414062 9.835938 43.011719 23.59375 35.460938 29.933594 C 27.910156 36.273438 18.117188 40.21875 14.746094 44.363281 C 14.519531 39.195312 14.429688 38.65625 14.429688 38.65625 C 14.429688 38.65625 30.070312 32.902344 35.015625 25.53125 C 39.960938 18.160156 41.355469 10.164062 41.355469 10.164062 Z M 41.355469 10.164062 " fill-opacity="1" fill-rule="nonzero"/><path fill="#717e87" d="M 45.425781 9.835938 L 41.363281 10.164062 C 41.363281 10.164062 41.066406 11.867188 40.265625 14.425781 L 40.648438 17.574219 L 42.585938 14.425781 C 42.585938 14.425781 41.152344 21.660156 31.261719 31.683594 C 35.796875 27.867188 39.308594 23.863281 42.089844 18.921875 C 40.488281 22.730469 38.832031 25.765625 37.332031 28.121094 C 43.421875 21.304688 45.425781 9.835938 45.425781 9.835938 Z M 45.425781 9.835938 " fill-opacity="1" fill-rule="nonzero"/><path fill="#a5b3bc" d="M 44.476562 14.453125 C 44.476562 14.453125 45.65625 14.042969 46.214844 13.894531 C 46.773438 13.746094 47.285156 14.875 45.878906 16.1875 C 44.484375 17.5 44.828125 18.828125 44.800781 19.925781 C 44.773438 21.027344 42.679688 19.890625 43.125 18.753906 C 43.125 18.753906 44.09375 16.242188 44.476562 14.453125 Z M 44.476562 14.453125 " fill-opacity="1" fill-rule="nonzero"/><path fill="#717e87" d="M 46.214844 13.894531 C 45.65625 14.042969 44.476562 14.453125 44.476562 14.453125 C 44.363281 14.984375 44.195312 15.589844 44.019531 16.167969 C 44.167969 15.972656 44.371094 15.730469 44.679688 15.429688 C 45.609375 14.511719 46.140625 14.4375 45.675781 15.429688 C 45.210938 16.425781 44.167969 17.589844 44.296875 18.867188 C 44.417969 20.03125 43.238281 19.582031 43.171875 18.652344 C 43.144531 18.71875 43.132812 18.753906 43.132812 18.753906 C 42.6875 19.890625 44.792969 21.015625 44.808594 19.925781 C 44.839844 18.828125 44.492188 17.5 45.890625 16.1875 C 47.285156 14.875 46.773438 13.746094 46.214844 13.894531 Z M 46.214844 13.894531 " fill-opacity="1" fill-rule="nonzero"/><path fill="#1e3748" d="M 11.355469 17.460938 C 11.355469 17.460938 10.386719 21.707031 12.761719 25.660156 C 11.1875 27.820312 10.964844 28.257812 10.964844 28.257812 C 10.964844 28.257812 14.25 29.105469 16.046875 29.3125 C 17.84375 29.515625 21.179688 29.589844 21.402344 29.554688 C 21.617188 29.515625 23.5625 26.414062 23.5625 26.414062 L 23.117188 18.875 L 13.515625 20.953125 Z M 11.355469 17.460938 " fill-opacity="1" fill-rule="nonzero"/><path fill="#1e3748" d="M 35.75 17.460938 C 35.75 17.460938 36.71875 21.707031 34.34375 25.660156 C 35.917969 27.820312 36.140625 28.257812 36.140625 28.257812 C 36.140625 28.257812 32.855469 29.105469 31.058594 29.3125 C 29.261719 29.515625 25.925781 29.589844 25.703125 29.554688 C 25.488281 29.515625 23.542969 26.414062 23.542969 26.414062 L 23.992188 18.875 L 33.589844 20.953125 Z M 35.75 17.460938 " fill-opacity="1" fill-rule="nonzero"/><path fill="#1e3748" d="M 22.648438 23.902344 C 22.558594 23.808594 22.453125 23.6875 22.351562 23.558594 C 21.894531 24.285156 21.441406 24.851562 20.59375 24.851562 C 20.210938 24.851562 19.808594 24.722656 19.289062 24.433594 C 18.601562 24.050781 18.152344 23.566406 17.753906 23.140625 C 17.230469 22.582031 16.859375 22.179688 16.046875 22.058594 L 16.039062 21.816406 C 16.03125 21.816406 16.03125 21.816406 16.019531 21.816406 C 15.789062 21.816406 15.582031 21.835938 15.398438 21.882812 C 15.378906 21.890625 15.359375 21.890625 15.332031 21.902344 C 14.882812 22.023438 14.734375 22.234375 14.671875 22.386719 C 14.660156 22.414062 14.652344 22.433594 14.640625 22.460938 C 14.632812 22.488281 14.625 22.523438 14.613281 22.5625 L 14.605469 22.589844 C 14.578125 22.71875 14.566406 22.859375 14.566406 23.019531 L 14.566406 23.027344 C 14.578125 23.351562 14.640625 23.746094 14.773438 24.183594 L 13.199219 24.972656 C 13.117188 24.859375 11.066406 22.125 11.261719 18.921875 L 11.355469 17.433594 L 12.632812 18.214844 C 12.632812 18.214844 12.742188 18.28125 12.921875 18.34375 C 12.855469 17.199219 13.058594 15.582031 14.121094 14.101562 C 15.804688 11.753906 18.972656 10.5625 23.554688 10.5625 C 28.132812 10.5625 31.308594 11.753906 32.996094 14.101562 C 34.054688 15.582031 34.261719 17.199219 34.195312 18.34375 C 34.371094 18.28125 34.484375 18.214844 34.492188 18.214844 L 35.769531 17.433594 L 35.851562 18.921875 C 36.046875 22.125 34 24.851562 33.917969 24.972656 L 32.34375 24.183594 C 32.472656 23.734375 32.539062 23.34375 32.546875 23.007812 C 32.546875 22.933594 32.546875 22.871094 32.539062 22.804688 C 32.527344 22.730469 32.519531 22.644531 32.5 22.582031 L 32.492188 22.542969 C 32.480469 22.507812 32.472656 22.46875 32.464844 22.441406 C 32.453125 22.402344 32.4375 22.367188 32.417969 22.328125 C 32.40625 22.300781 32.390625 22.28125 32.378906 22.265625 C 32.332031 22.191406 32.277344 22.132812 32.203125 22.078125 C 32.089844 21.996094 31.953125 21.929688 31.773438 21.882812 C 31.757812 21.875 31.726562 21.875 31.699219 21.863281 C 31.625 21.84375 31.550781 21.835938 31.46875 21.828125 L 31.449219 21.828125 C 31.328125 21.816406 31.207031 21.808594 31.085938 21.808594 C 31.078125 21.808594 31.078125 21.808594 31.066406 21.808594 L 31.058594 22.050781 C 30.246094 22.171875 29.867188 22.570312 29.355469 23.128906 C 28.953125 23.558594 28.507812 24.042969 27.816406 24.421875 C 27.296875 24.710938 26.894531 24.84375 26.515625 24.84375 C 25.667969 24.84375 25.210938 24.265625 24.753906 23.546875 C 24.652344 23.679688 24.539062 23.800781 24.457031 23.894531 L 24.457031 25.457031 L 23.5625 24.683594 L 22.667969 25.457031 L 22.667969 23.902344 Z M 22.648438 23.902344 " fill-opacity="1" fill-rule="nonzero"/><path fill="#1e3748" d="M 13.917969 24.453125 C 13.757812 23.902344 13.683594 23.4375 13.675781 23.046875 C 13.675781 22.8125 13.691406 22.597656 13.730469 22.414062 C 13.730469 22.394531 13.738281 22.375 13.738281 22.355469 C 13.757812 22.292969 13.777344 22.226562 13.796875 22.160156 C 13.8125 22.113281 13.832031 22.058594 13.851562 22.011719 C 14.113281 21.445312 14.597656 21.164062 15.109375 21.027344 C 15.136719 21.015625 15.164062 21.007812 15.191406 21.007812 C 16.039062 20.8125 16.921875 21.007812 16.921875 21.007812 C 16.921875 21.007812 16.914062 21.007812 16.160156 21.175781 C 18.023438 21.453125 18.28125 22.871094 19.707031 23.652344 C 20.992188 24.359375 21.113281 23.78125 22.074219 22.273438 C 22.109375 22.21875 22.136719 22.171875 22.175781 22.113281 C 22.25 22.003906 22.324219 21.890625 22.398438 21.78125 C 22.679688 22.824219 23.507812 23.503906 23.523438 23.511719 C 23.542969 23.492188 24.382812 22.8125 24.652344 21.78125 C 24.734375 21.902344 24.808594 22.011719 24.875 22.113281 C 24.914062 22.171875 24.941406 22.226562 24.976562 22.273438 C 25.9375 23.78125 26.058594 24.359375 27.34375 23.652344 C 28.757812 22.871094 29.027344 21.453125 30.890625 21.175781 C 30.519531 21.089844 30.332031 21.054688 30.238281 21.035156 C 30.230469 21.035156 30.230469 21.035156 30.21875 21.035156 C 30.136719 21.015625 30.136719 21.015625 30.136719 21.015625 C 30.136719 21.015625 30.789062 20.867188 31.515625 20.953125 C 31.523438 20.953125 31.523438 20.953125 31.53125 20.953125 C 31.644531 20.960938 31.746094 20.980469 31.859375 21.007812 C 31.894531 21.015625 31.921875 21.027344 31.960938 21.035156 C 32.222656 21.101562 32.480469 21.210938 32.695312 21.378906 C 32.84375 21.492188 32.976562 21.621094 33.085938 21.789062 C 33.117188 21.835938 33.144531 21.882812 33.171875 21.9375 C 33.207031 22.011719 33.246094 22.085938 33.273438 22.171875 C 33.292969 22.234375 33.3125 22.292969 33.328125 22.367188 C 33.328125 22.386719 33.339844 22.402344 33.339844 22.421875 C 33.367188 22.535156 33.386719 22.644531 33.394531 22.777344 C 33.402344 22.871094 33.402344 22.960938 33.402344 23.054688 C 33.394531 23.445312 33.320312 23.910156 33.160156 24.460938 C 33.160156 24.460938 35.097656 21.910156 34.921875 19.015625 C 34.921875 19.015625 34.066406 19.546875 33.097656 19.386719 C 33.515625 18.160156 34.148438 11.492188 23.535156 11.492188 C 12.921875 11.492188 13.554688 18.160156 13.972656 19.386719 C 13.003906 19.546875 12.148438 19.015625 12.148438 19.015625 C 11.980469 21.910156 13.917969 24.453125 13.917969 24.453125 Z M 13.917969 24.453125 " fill-opacity="1" fill-rule="nonzero"/><path fill="#1e3748" d="M 20.824219 41.960938 C 20.582031 41.449219 20.359375 40.835938 20.171875 40.128906 C 19.960938 39.335938 19.792969 38.433594 19.660156 37.4375 C 19.660156 37.417969 19.652344 37.390625 19.652344 37.371094 C 19.457031 37.707031 19.25 38.097656 19.019531 38.574219 L 18.3125 40.007812 L 17.453125 38.65625 C 16.078125 36.46875 16.382812 35.15625 16.589844 34.289062 C 16.699219 33.824219 16.691406 33.789062 16.636719 33.703125 C 15.84375 32.570312 15.816406 31.386719 15.84375 30.921875 C 15.574219 31.050781 15.292969 31.265625 15.023438 31.542969 L 15.015625 31.554688 C 14.867188 31.710938 14.734375 31.878906 14.605469 32.058594 L 14.140625 32.71875 L 13.433594 32.328125 C 12.601562 31.863281 11.847656 31.164062 11.261719 30.308594 C 11.234375 30.269531 11.207031 30.222656 11.179688 30.1875 C 11.121094 30.109375 11.078125 30.027344 11.039062 29.960938 C 10.992188 29.886719 10.957031 29.824219 10.917969 29.757812 C 10.863281 29.65625 10.816406 29.5625 10.777344 29.488281 C 10.675781 29.273438 10.621094 29.132812 10.609375 29.117188 L 10.433594 28.667969 L 10.714844 28.277344 C 10.789062 28.175781 10.863281 28.074219 10.9375 27.96875 C 11.140625 27.691406 11.320312 27.476562 11.484375 27.289062 C 11.523438 27.253906 11.558594 27.207031 11.597656 27.167969 C 12.175781 26.574219 12.800781 26.257812 13.535156 26.183594 L 13.898438 25.234375 C 13.925781 25.242188 16.832031 26.144531 19.6875 27.1875 L 20.351562 27.429688 C 20.351562 27.421875 20.367188 27.382812 20.367188 27.382812 C 20.386719 27.328125 20.414062 27.261719 20.441406 27.207031 L 20.453125 27.1875 L 20.472656 27.160156 C 21.140625 25.644531 22.101562 24.796875 22.648438 24.40625 L 22.648438 23.363281 L 23.507812 23.847656 L 24.4375 23.222656 L 24.4375 24.394531 C 24.996094 24.785156 25.957031 25.644531 26.625 27.167969 L 26.636719 27.199219 C 26.664062 27.253906 26.691406 27.320312 26.710938 27.382812 C 26.710938 27.382812 26.726562 27.421875 26.726562 27.429688 L 27.390625 27.1875 C 30.246094 26.144531 33.152344 25.242188 33.179688 25.234375 L 33.542969 26.183594 C 34.28125 26.257812 34.902344 26.574219 35.480469 27.167969 C 35.519531 27.207031 35.554688 27.253906 35.601562 27.289062 C 35.769531 27.476562 35.945312 27.691406 36.152344 27.96875 C 36.226562 28.0625 36.300781 28.164062 36.375 28.277344 L 36.652344 28.667969 L 36.476562 29.117188 C 36.46875 29.144531 36.410156 29.28125 36.308594 29.488281 C 36.273438 29.570312 36.226562 29.65625 36.167969 29.757812 C 36.132812 29.824219 36.09375 29.898438 36.046875 29.960938 C 35.621094 30.679688 34.855469 31.664062 33.65625 32.335938 L 32.949219 32.726562 L 32.480469 32.066406 C 32.351562 31.890625 32.222656 31.722656 32.074219 31.5625 L 32.054688 31.542969 C 31.785156 31.265625 31.515625 31.050781 31.242188 30.921875 C 31.273438 31.386719 31.253906 32.570312 30.453125 33.703125 C 30.398438 33.789062 30.386719 33.824219 30.5 34.289062 C 30.703125 35.15625 31.019531 36.46875 29.632812 38.65625 L 28.777344 40.007812 L 28.070312 38.574219 C 27.835938 38.105469 27.621094 37.707031 27.4375 37.371094 C 27.425781 37.484375 27.40625 37.585938 27.390625 37.699219 C 27.269531 38.589844 27.109375 39.402344 26.914062 40.117188 C 26.726562 40.824219 26.503906 41.441406 26.261719 41.953125 L 25.078125 44.410156 L 24.578125 41.726562 C 24.457031 41.078125 24.316406 40.425781 24.175781 39.800781 L 24.101562 39.464844 L 24.027344 39.148438 L 23.953125 38.84375 L 23.878906 38.546875 L 23.757812 38.097656 L 23.730469 37.988281 C 23.675781 37.789062 23.628906 37.605469 23.570312 37.417969 L 23.535156 37.296875 L 23.496094 37.417969 C 23.449219 37.59375 23.394531 37.78125 23.339844 37.988281 L 23.238281 38.378906 L 23.160156 38.675781 L 23.085938 38.984375 L 23.039062 39.148438 L 22.964844 39.464844 L 22.890625 39.800781 C 22.753906 40.433594 22.613281 41.085938 22.492188 41.726562 L 21.988281 44.410156 Z M 20.824219 41.960938 " fill-opacity="1" fill-rule="nonzero"/><path fill="#1e3748" d="M 35.441406 28.492188 C 35.277344 28.257812 35.109375 28.054688 34.949219 27.878906 C 34.921875 27.839844 34.882812 27.8125 34.855469 27.773438 C 34.371094 27.28125 33.886719 27.03125 33.171875 27.046875 C 33.171875 27.046875 33.171875 27.046875 33.160156 27.046875 C 33.070312 27.046875 32.976562 27.058594 32.882812 27.066406 C 32.816406 27.078125 32.753906 27.085938 32.679688 27.09375 C 32.585938 27.105469 32.492188 27.125 32.398438 27.140625 C 32.371094 27.152344 32.351562 27.152344 32.324219 27.160156 C 32.101562 27.207031 31.847656 27.273438 31.578125 27.355469 C 31.636719 27.273438 31.710938 27.199219 31.792969 27.113281 C 31.859375 27.058594 31.921875 26.992188 32 26.9375 C 32.027344 26.917969 32.042969 26.898438 32.074219 26.882812 C 32.121094 26.84375 32.175781 26.808594 32.222656 26.769531 C 32.25 26.75 32.277344 26.730469 32.296875 26.714844 C 32.371094 26.65625 32.453125 26.609375 32.539062 26.566406 C 32.566406 26.546875 32.59375 26.535156 32.613281 26.519531 C 33.058594 26.25 33.460938 26.070312 33.460938 26.070312 C 33.460938 26.070312 30.582031 26.964844 27.707031 28.015625 C 27.855469 28.78125 28.265625 29.414062 28.265625 29.414062 C 28.265625 29.414062 26.757812 29.859375 25.890625 27.710938 C 25.890625 27.710938 25.890625 27.710938 25.890625 27.699219 C 25.863281 27.636719 25.835938 27.570312 25.804688 27.515625 C 25.136719 25.976562 24.140625 25.242188 23.730469 24.992188 C 23.71875 24.980469 23.710938 24.980469 23.703125 24.972656 C 23.691406 24.972656 23.683594 24.964844 23.683594 24.964844 C 23.601562 24.917969 23.542969 24.890625 23.542969 24.890625 C 23.535156 24.890625 23.488281 24.917969 23.402344 24.964844 C 23.394531 24.964844 23.386719 24.972656 23.386719 24.972656 C 23.375 24.980469 23.367188 24.980469 23.359375 24.992188 C 22.949219 25.242188 21.953125 25.976562 21.28125 27.515625 C 21.253906 27.578125 21.226562 27.636719 21.199219 27.699219 C 21.199219 27.699219 21.199219 27.699219 21.199219 27.710938 C 20.339844 29.859375 18.824219 29.414062 18.824219 29.414062 C 18.824219 29.414062 19.234375 28.78125 19.382812 28.015625 C 16.503906 26.972656 13.628906 26.070312 13.628906 26.070312 C 13.628906 26.070312 14.027344 26.25 14.476562 26.519531 C 14.503906 26.535156 14.53125 26.546875 14.550781 26.566406 C 14.632812 26.609375 14.707031 26.667969 14.792969 26.714844 C 14.820312 26.730469 14.847656 26.75 14.867188 26.769531 C 14.921875 26.808594 14.96875 26.84375 15.015625 26.882812 C 15.042969 26.898438 15.0625 26.917969 15.089844 26.9375 C 15.164062 26.992188 15.230469 27.058594 15.292969 27.113281 C 15.378906 27.199219 15.453125 27.273438 15.507812 27.355469 C 15.238281 27.273438 14.988281 27.207031 14.761719 27.160156 C 14.734375 27.152344 14.707031 27.152344 14.6875 27.140625 C 14.597656 27.125 14.503906 27.105469 14.410156 27.09375 C 14.34375 27.085938 14.269531 27.078125 14.203125 27.066406 C 14.113281 27.058594 14.019531 27.046875 13.925781 27.046875 C 13.925781 27.046875 13.925781 27.046875 13.917969 27.046875 C 13.199219 27.03125 12.714844 27.28125 12.230469 27.773438 C 12.203125 27.8125 12.164062 27.839844 12.136719 27.878906 C 11.980469 28.054688 11.8125 28.257812 11.644531 28.492188 C 11.578125 28.585938 11.503906 28.679688 11.429688 28.78125 C 11.429688 28.78125 11.476562 28.890625 11.570312 29.078125 C 11.605469 29.144531 11.644531 29.226562 11.691406 29.3125 C 11.71875 29.367188 11.757812 29.433594 11.792969 29.496094 C 11.832031 29.5625 11.878906 29.628906 11.921875 29.691406 C 11.941406 29.730469 11.96875 29.757812 12 29.792969 C 12.390625 30.363281 12.996094 31.050781 13.859375 31.542969 C 14.007812 31.332031 14.175781 31.125 14.34375 30.941406 C 14.355469 30.929688 14.355469 30.929688 14.363281 30.921875 C 15.609375 29.609375 17.398438 29.191406 18.796875 31.535156 C 16.921875 31.070312 16.738281 30.847656 16.738281 30.847656 C 16.738281 30.847656 16.570312 32.058594 17.351562 33.183594 C 18.132812 34.300781 16.273438 35.128906 18.191406 38.171875 C 19.53125 35.445312 20.320312 34.941406 20.320312 34.941406 C 20.320312 34.941406 20.351562 35.984375 20.527344 37.324219 C 20.628906 38.125 20.789062 39.039062 21.011719 39.894531 C 21.167969 40.5 21.363281 41.078125 21.605469 41.570312 C 21.738281 40.863281 21.878906 40.210938 22.015625 39.605469 C 22.027344 39.550781 22.042969 39.484375 22.054688 39.429688 C 22.0625 39.375 22.082031 39.316406 22.089844 39.269531 C 22.109375 39.214844 22.121094 39.148438 22.136719 39.09375 C 22.148438 39.046875 22.164062 38.992188 22.175781 38.945312 C 22.195312 38.890625 22.203125 38.832031 22.222656 38.769531 C 22.230469 38.722656 22.25 38.675781 22.257812 38.628906 C 22.277344 38.574219 22.285156 38.515625 22.304688 38.460938 C 22.316406 38.414062 22.324219 38.367188 22.34375 38.332031 C 22.359375 38.273438 22.371094 38.21875 22.390625 38.164062 C 22.398438 38.125 22.40625 38.078125 22.417969 38.042969 C 22.4375 37.988281 22.445312 37.929688 22.464844 37.875 C 22.472656 37.835938 22.480469 37.800781 22.492188 37.761719 C 22.546875 37.558594 22.601562 37.371094 22.648438 37.1875 C 22.660156 37.15625 22.667969 37.128906 22.679688 37.09375 C 22.695312 37.046875 22.707031 36.992188 22.722656 36.945312 C 22.734375 36.914062 22.742188 36.878906 22.753906 36.851562 C 22.761719 36.804688 22.78125 36.757812 22.789062 36.710938 C 22.800781 36.683594 22.808594 36.644531 22.816406 36.617188 C 22.828125 36.570312 22.84375 36.535156 22.855469 36.488281 C 22.863281 36.460938 22.875 36.433594 22.882812 36.394531 C 22.890625 36.347656 22.910156 36.3125 22.921875 36.273438 C 22.929688 36.246094 22.9375 36.21875 22.949219 36.191406 C 22.957031 36.152344 22.976562 36.105469 22.984375 36.070312 C 22.996094 36.050781 22.996094 36.03125 23.003906 36.011719 C 23.03125 35.910156 23.070312 35.816406 23.097656 35.722656 C 23.097656 35.722656 23.097656 35.714844 23.105469 35.707031 C 23.117188 35.667969 23.132812 35.632812 23.144531 35.601562 C 23.152344 35.585938 23.160156 35.558594 23.160156 35.539062 C 23.171875 35.511719 23.179688 35.472656 23.191406 35.445312 C 23.199219 35.425781 23.207031 35.40625 23.207031 35.378906 C 23.21875 35.351562 23.226562 35.324219 23.238281 35.296875 C 23.246094 35.277344 23.253906 35.257812 23.253906 35.242188 C 23.265625 35.210938 23.273438 35.195312 23.28125 35.164062 C 23.292969 35.148438 23.300781 35.128906 23.300781 35.109375 C 23.3125 35.089844 23.320312 35.0625 23.328125 35.042969 C 23.339844 35.027344 23.339844 35.015625 23.347656 35 C 23.359375 34.980469 23.367188 34.953125 23.375 34.933594 C 23.386719 34.914062 23.386719 34.90625 23.394531 34.886719 C 23.402344 34.859375 23.414062 34.820312 23.433594 34.792969 C 23.441406 34.773438 23.441406 34.757812 23.449219 34.746094 C 23.460938 34.738281 23.460938 34.71875 23.460938 34.710938 C 23.46875 34.699219 23.46875 34.683594 23.480469 34.671875 C 23.480469 34.664062 23.488281 34.652344 23.488281 34.644531 C 23.488281 34.636719 23.496094 34.617188 23.496094 34.605469 C 23.496094 34.597656 23.507812 34.589844 23.507812 34.578125 C 23.507812 34.570312 23.515625 34.5625 23.515625 34.550781 C 23.515625 34.542969 23.523438 34.542969 23.523438 34.53125 C 23.523438 34.523438 23.535156 34.515625 23.535156 34.515625 C 23.535156 34.515625 23.535156 34.503906 23.542969 34.503906 C 23.554688 34.488281 23.554688 34.488281 23.554688 34.476562 C 23.554688 34.476562 23.554688 34.488281 23.5625 34.503906 C 23.5625 34.503906 23.5625 34.515625 23.570312 34.515625 C 23.570312 34.523438 23.582031 34.523438 23.582031 34.53125 C 23.582031 34.542969 23.589844 34.542969 23.589844 34.550781 C 23.589844 34.5625 23.601562 34.570312 23.601562 34.578125 C 23.601562 34.589844 23.609375 34.597656 23.609375 34.605469 C 23.609375 34.617188 23.617188 34.625 23.617188 34.644531 C 23.617188 34.652344 23.628906 34.664062 23.628906 34.671875 C 23.636719 34.683594 23.636719 34.699219 23.644531 34.710938 C 23.644531 34.71875 23.65625 34.738281 23.65625 34.746094 C 23.664062 34.765625 23.664062 34.785156 23.675781 34.792969 C 23.683594 34.820312 23.691406 34.847656 23.710938 34.886719 C 23.71875 34.90625 23.71875 34.914062 23.730469 34.933594 C 23.738281 34.953125 23.75 34.980469 23.757812 35 C 23.765625 35.015625 23.765625 35.027344 23.777344 35.042969 C 23.785156 35.0625 23.796875 35.089844 23.804688 35.109375 C 23.8125 35.128906 23.8125 35.148438 23.824219 35.164062 C 23.832031 35.195312 23.839844 35.210938 23.851562 35.242188 C 23.859375 35.257812 23.871094 35.277344 23.871094 35.296875 C 23.878906 35.324219 23.886719 35.351562 23.898438 35.378906 C 23.90625 35.398438 23.917969 35.417969 23.917969 35.445312 C 23.925781 35.472656 23.933594 35.511719 23.945312 35.539062 C 23.953125 35.558594 23.960938 35.585938 23.960938 35.601562 C 23.972656 35.640625 23.980469 35.667969 24 35.707031 C 24 35.707031 24 35.714844 24.007812 35.722656 C 24.039062 35.816406 24.074219 35.910156 24.101562 36.011719 C 24.113281 36.03125 24.113281 36.050781 24.121094 36.070312 C 24.128906 36.105469 24.148438 36.152344 24.160156 36.191406 C 24.167969 36.21875 24.175781 36.246094 24.1875 36.273438 C 24.195312 36.3125 24.214844 36.355469 24.222656 36.394531 C 24.234375 36.421875 24.242188 36.449219 24.25 36.488281 C 24.261719 36.535156 24.28125 36.570312 24.289062 36.617188 C 24.296875 36.644531 24.308594 36.683594 24.316406 36.710938 C 24.324219 36.757812 24.34375 36.804688 24.355469 36.851562 C 24.363281 36.878906 24.371094 36.914062 24.382812 36.945312 C 24.398438 36.992188 24.410156 37.035156 24.429688 37.09375 C 24.4375 37.121094 24.445312 37.148438 24.457031 37.1875 C 24.511719 37.371094 24.558594 37.558594 24.613281 37.761719 C 24.625 37.800781 24.632812 37.835938 24.640625 37.875 C 24.660156 37.929688 24.671875 37.988281 24.6875 38.042969 C 24.699219 38.078125 24.707031 38.125 24.71875 38.164062 C 24.734375 38.21875 24.746094 38.273438 24.761719 38.332031 C 24.773438 38.378906 24.78125 38.425781 24.800781 38.460938 C 24.820312 38.515625 24.828125 38.574219 24.847656 38.628906 C 24.855469 38.675781 24.875 38.722656 24.882812 38.769531 C 24.902344 38.824219 24.914062 38.878906 24.929688 38.945312 C 24.941406 38.992188 24.960938 39.046875 24.96875 39.09375 C 24.988281 39.148438 24.996094 39.214844 25.015625 39.269531 C 25.023438 39.328125 25.042969 39.375 25.050781 39.429688 C 25.0625 39.484375 25.078125 39.550781 25.089844 39.605469 C 25.230469 40.210938 25.367188 40.863281 25.5 41.570312 C 25.742188 41.066406 25.9375 40.492188 26.09375 39.894531 C 26.300781 39.121094 26.449219 38.3125 26.550781 37.578125 C 26.757812 36.117188 26.792969 34.941406 26.792969 34.941406 C 26.792969 34.941406 27.574219 35.445312 28.925781 38.171875 C 30.851562 35.128906 28.980469 34.308594 29.761719 33.183594 C 30.546875 32.066406 30.378906 30.847656 30.378906 30.847656 C 30.378906 30.847656 30.191406 31.070312 28.320312 31.535156 C 29.707031 29.179688 31.496094 29.597656 32.753906 30.921875 C 32.761719 30.929688 32.761719 30.929688 32.769531 30.941406 C 32.949219 31.125 33.105469 31.320312 33.253906 31.542969 C 34.289062 30.96875 34.949219 30.101562 35.3125 29.496094 C 35.351562 29.433594 35.386719 29.375 35.414062 29.3125 C 35.460938 29.226562 35.507812 29.144531 35.535156 29.078125 C 35.628906 28.890625 35.675781 28.78125 35.675781 28.78125 C 35.582031 28.6875 35.507812 28.585938 35.441406 28.492188 Z M 35.441406 28.492188 " fill-opacity="1" fill-rule="nonzero"/><path fill="#a5b3bc" d="M 13.917969 24.453125 C 13.917969 24.453125 11.980469 21.902344 12.15625 19.007812 C 12.15625 19.007812 13.011719 19.535156 13.980469 19.378906 C 13.5625 18.148438 12.929688 11.484375 23.554688 11.484375 L 23.554688 23.53125 C 23.554688 23.53125 22.695312 22.851562 22.417969 21.796875 C 21.140625 23.667969 21.140625 24.453125 19.726562 23.667969 C 18.3125 22.886719 18.039062 21.472656 16.179688 21.195312 C 16.941406 21.027344 16.941406 21.027344 16.941406 21.027344 C 16.941406 21.027344 12.632812 20.058594 13.917969 24.453125 Z M 13.917969 24.453125 " fill-opacity="1" fill-rule="nonzero"/><path fill="#a5b3bc" d="M 11.449219 28.789062 C 11.449219 28.789062 12.136719 30.585938 13.878906 31.554688 C 15.109375 29.792969 17.222656 28.863281 18.8125 31.554688 C 16.941406 31.089844 16.757812 30.867188 16.757812 30.867188 C 16.757812 30.867188 16.589844 32.074219 17.371094 33.203125 C 18.152344 34.320312 16.289062 35.148438 18.207031 38.191406 C 19.550781 35.464844 20.339844 34.960938 20.339844 34.960938 C 20.339844 34.960938 20.472656 39.179688 21.625 41.589844 C 22.480469 37.035156 23.554688 34.496094 23.554688 34.496094 L 23.554688 24.890625 C 23.554688 24.890625 22.0625 25.578125 21.199219 27.726562 C 20.339844 29.878906 18.824219 29.433594 18.824219 29.433594 C 18.824219 29.433594 19.234375 28.796875 19.382812 28.035156 C 16.503906 26.992188 13.628906 26.089844 13.628906 26.089844 C 13.628906 26.089844 15.042969 26.722656 15.519531 27.375 C 13.226562 26.65625 12.601562 27.160156 11.449219 28.789062 Z M 11.449219 28.789062 " fill-opacity="1" fill-rule="nonzero"/><path fill="#717e87" d="M 16.941406 21.015625 C 16.941406 21.015625 16.941406 21.015625 16.179688 21.183594 C 18.039062 21.464844 18.300781 22.878906 19.726562 23.660156 C 21.140625 24.441406 21.140625 23.660156 22.417969 21.789062 C 22.417969 21.789062 21.792969 22.542969 20.433594 23.082031 C 21.152344 22.757812 21.441406 21.621094 21.441406 21.621094 C 21.441406 21.621094 20.3125 22.21875 17.621094 20.355469 C 14.929688 18.496094 13.328125 20.300781 13.328125 20.300781 C 13.328125 20.300781 13.328125 20.300781 14.175781 20.152344 C 12.183594 21.546875 13.90625 24.453125 13.90625 24.453125 C 12.632812 20.058594 16.941406 21.015625 16.941406 21.015625 Z M 16.941406 21.015625 " fill-opacity="1" fill-rule="nonzero"/><path fill="#717e87" d="M 13.980469 19.378906 C 13.980469 19.378906 13.609375 15.972656 16.226562 14.59375 C 15.320312 16.726562 15.472656 18.429688 15.472656 18.429688 C 15.472656 18.429688 15.675781 14.6875 19.699219 13.757812 C 19.699219 13.757812 18.039062 13.578125 17.238281 13.941406 C 18.125 12.742188 21.058594 11.8125 23.554688 12.972656 L 23.554688 11.484375 C 12.9375 11.476562 13.5625 18.140625 13.980469 19.378906 Z M 13.980469 19.378906 " fill-opacity="1" fill-rule="nonzero"/><path fill="#717e87" d="M 14.679688 27.90625 C 15.050781 28.101562 17.695312 28.492188 17.695312 28.492188 C 17.695312 28.492188 17.695312 28.492188 16.550781 27.785156 C 16.933594 27.832031 19.390625 28.015625 19.390625 28.015625 C 16.515625 26.972656 13.636719 26.070312 13.636719 26.070312 C 13.636719 26.070312 15.050781 26.703125 15.527344 27.355469 C 13.226562 26.648438 12.613281 27.152344 11.457031 28.769531 C 11.457031 28.769531 12.148438 30.566406 13.886719 31.535156 C 15.117188 29.777344 17.230469 28.84375 18.824219 31.535156 C 18.449219 28.667969 15.339844 29.105469 14.679688 27.90625 Z M 14.679688 27.90625 " fill-opacity="1" fill-rule="nonzero"/><path fill="#717e87" d="M 18.207031 38.183594 C 19.550781 35.453125 20.339844 34.953125 20.339844 34.953125 C 20.339844 34.953125 20.472656 39.167969 21.625 41.578125 C 21.625 41.578125 20.863281 36.339844 20.441406 33.15625 C 18.960938 35.210938 18.207031 38.183594 18.207031 38.183594 Z M 18.207031 38.183594 " fill-opacity="1" fill-rule="nonzero"/><path fill="#717e87" d="M 23.554688 33.230469 C 23.554688 33.230469 22.082031 37.167969 21.960938 39.941406 C 22.742188 36.421875 23.554688 34.488281 23.554688 34.488281 Z M 23.554688 33.230469 " fill-opacity="1" fill-rule="nonzero"/><path fill="#717e87" d="M 23.554688 27.699219 L 23.554688 24.878906 C 23.554688 24.878906 22.0625 25.570312 21.199219 27.710938 C 21.652344 27.105469 22.679688 25.8125 23.292969 25.550781 C 23.011719 26.964844 20.199219 29.125 21.8125 32.179688 C 22.195312 32.921875 22.558594 33.164062 22.84375 32.242188 C 23.132812 31.320312 23.554688 30.855469 23.554688 30.855469 L 22.539062 29.355469 Z M 23.554688 27.699219 " fill-opacity="1" fill-rule="nonzero"/><path fill="#a5b3bc" d="M 33.191406 24.453125 C 33.191406 24.453125 35.125 21.902344 34.949219 19.007812 C 34.949219 19.007812 34.09375 19.535156 33.125 19.378906 C 33.542969 18.148438 34.175781 11.484375 23.554688 11.484375 L 23.554688 23.53125 C 23.554688 23.53125 24.410156 22.851562 24.6875 21.796875 C 25.964844 23.667969 25.964844 24.453125 27.378906 23.667969 C 28.796875 22.886719 29.066406 21.472656 30.925781 21.195312 C 30.164062 21.027344 30.164062 21.027344 30.164062 21.027344 C 30.164062 21.027344 34.476562 20.058594 33.191406 24.453125 Z M 33.191406 24.453125 " fill-opacity="1" fill-rule="nonzero"/><path fill="#a5b3bc" d="M 35.65625 28.789062 C 35.65625 28.789062 34.96875 30.585938 33.226562 31.554688 C 32 29.792969 29.882812 28.863281 28.292969 31.554688 C 30.164062 31.089844 30.351562 30.867188 30.351562 30.867188 C 30.351562 30.867188 30.519531 32.074219 29.734375 33.203125 C 28.953125 34.328125 30.816406 35.148438 28.898438 38.191406 C 27.558594 35.464844 26.765625 34.960938 26.765625 34.960938 C 26.765625 34.960938 26.636719 39.179688 25.480469 41.589844 C 24.625 37.035156 23.554688 34.496094 23.554688 34.496094 L 23.554688 24.890625 C 23.554688 24.890625 25.042969 25.578125 25.910156 27.726562 C 26.765625 29.878906 28.28125 29.433594 28.28125 29.433594 C 28.28125 29.433594 27.875 28.796875 27.722656 28.035156 C 30.601562 26.992188 33.480469 26.089844 33.480469 26.089844 C 33.480469 26.089844 32.0625 26.722656 31.589844 27.375 C 33.878906 26.65625 34.492188 27.160156 35.65625 28.789062 Z M 35.65625 28.789062 " fill-opacity="1" fill-rule="nonzero"/><path fill="#717e87" d="M 30.164062 21.015625 C 30.164062 21.015625 30.164062 21.015625 30.925781 21.183594 C 29.066406 21.464844 28.804688 22.878906 27.378906 23.660156 C 25.964844 24.441406 25.964844 23.660156 24.6875 21.789062 C 24.6875 21.789062 25.3125 22.542969 26.671875 23.082031 C 25.957031 22.757812 25.667969 21.621094 25.667969 21.621094 C 25.667969 21.621094 26.792969 22.21875 29.484375 20.355469 C 32.175781 18.496094 33.777344 20.300781 33.777344 20.300781 C 33.777344 20.300781 33.777344 20.300781 32.929688 20.152344 C 34.921875 21.546875 33.199219 24.453125 33.199219 24.453125 C 34.476562 20.058594 30.164062 21.015625 30.164062 21.015625 Z M 30.164062 21.015625 " fill-opacity="1" fill-rule="nonzero"/><path fill="#717e87" d="M 33.117188 19.378906 C 33.117188 19.378906 33.488281 15.972656 30.871094 14.59375 C 31.773438 16.726562 31.625 18.429688 31.625 18.429688 C 31.625 18.429688 31.421875 14.6875 27.398438 13.757812 C 27.398438 13.757812 29.054688 13.578125 29.855469 13.941406 C 28.972656 12.742188 26.039062 11.8125 23.542969 12.972656 L 23.542969 11.484375 C 34.167969 11.476562 33.535156 18.140625 33.117188 19.378906 Z M 33.117188 19.378906 " fill-opacity="1" fill-rule="nonzero"/><path fill="#717e87" d="M 24.539062 14.917969 C 24.539062 14.917969 24.640625 15.691406 24.128906 17.070312 C 24.074219 16.128906 23.601562 14.269531 23.554688 14.074219 L 23.554688 14.054688 C 23.554688 14.054688 23.554688 14.054688 23.554688 14.0625 C 23.554688 14.054688 23.554688 14.054688 23.554688 14.054688 L 23.554688 14.074219 C 23.507812 14.269531 23.039062 16.128906 22.976562 17.070312 C 22.464844 15.691406 22.566406 14.917969 22.566406 14.917969 C 22.566406 14.917969 21.710938 17.105469 22.875 19.15625 C 23.171875 19.667969 23.386719 20.066406 23.554688 20.382812 L 23.554688 20.394531 L 23.554688 20.375 C 23.71875 20.058594 23.933594 19.65625 24.234375 19.144531 C 25.40625 17.105469 24.539062 14.917969 24.539062 14.917969 Z M 24.539062 14.917969 " fill-opacity="1" fill-rule="nonzero"/><path fill="#717e87" d="M 32.425781 27.90625 C 32.054688 28.101562 29.410156 28.492188 29.410156 28.492188 C 29.410156 28.492188 29.410156 28.492188 30.554688 27.785156 C 30.171875 27.832031 27.714844 28.015625 27.714844 28.015625 C 30.59375 26.972656 33.46875 26.070312 33.46875 26.070312 C 33.46875 26.070312 32.054688 26.703125 31.578125 27.355469 C 33.878906 26.648438 34.492188 27.152344 35.648438 28.769531 C 35.648438 28.769531 34.960938 30.566406 33.21875 31.535156 C 31.988281 29.777344 29.875 28.84375 28.28125 31.535156 C 28.644531 28.667969 31.765625 29.105469 32.425781 27.90625 Z M 32.425781 27.90625 " fill-opacity="1" fill-rule="nonzero"/><path fill="#717e87" d="M 28.886719 38.183594 C 27.546875 35.453125 26.757812 34.953125 26.757812 34.953125 C 26.757812 34.953125 26.625 39.167969 25.472656 41.578125 C 25.472656 41.578125 26.234375 36.339844 26.652344 33.15625 C 28.144531 35.210938 28.886719 38.183594 28.886719 38.183594 Z M 28.886719 38.183594 " fill-opacity="1" fill-rule="nonzero"/><path fill="#717e87" d="M 23.554688 33.230469 C 23.554688 33.230469 25.023438 37.167969 25.144531 39.941406 C 24.363281 36.421875 23.554688 34.488281 23.554688 34.488281 Z M 23.554688 33.230469 " fill-opacity="1" fill-rule="nonzero"/><path fill="#717e87" d="M 23.554688 27.699219 L 23.554688 24.878906 C 23.554688 24.878906 25.042969 25.570312 25.910156 27.710938 C 25.453125 27.105469 24.429688 25.8125 23.8125 25.550781 C 24.09375 26.964844 26.90625 29.125 25.292969 32.179688 C 24.914062 32.921875 24.550781 33.164062 24.261719 32.242188 C 23.972656 31.320312 23.554688 30.855469 23.554688 30.855469 L 24.566406 29.355469 Z M 23.554688 27.699219 " fill-opacity="1" fill-rule="nonzero"/><path fill="#1e3748" d="M 25.5625 29.886719 C 25.414062 28.445312 23.582031 27.011719 23.554688 26.984375 C 23.515625 27.011719 21.691406 28.445312 21.542969 29.886719 C 21.394531 31.347656 22.269531 32.78125 22.492188 32.523438 C 22.667969 32.308594 22.863281 31.183594 23.5625 30.882812 C 24.261719 31.183594 24.457031 32.316406 24.632812 32.523438 C 24.847656 32.78125 25.722656 31.347656 25.5625 29.886719 Z M 25.5625 29.886719 " fill-opacity="1" fill-rule="nonzero"/></svg>